<?xml version="1.0" encoding="utf-8" ?><svg xmlns="http://www.w3.org/2000/svg" xmlns:xlink="http://www.w3.org/1999/xlink" viewBox="250 100 520 520"><path fill="white" d="M0 0L1024 0L1024 1024L0 1024L0 0Z"/><defs><linearGradient id="gradient_0" gradientUnits="userSpaceOnUse" x1="324.33536" y1="425.82306" x2="648.50311" y2="349.39929"><stop offset="0" stop-color="#FF2C2A"/><stop offset="1" stop-color="#FF8C8E"/></linearGradient></defs><path fill="url(#gradient_0)" d="M620.314 293.776C609.09 289.353 603.59 289.902 590.811 282.285C582.868 277.517 575.913 271.271 570.322 263.884C559.837 250.012 556.52 239.073 539.485 230.313C517.407 218.96 500.158 219.387 479.043 232.337C458.169 245.139 453.649 266.379 434.26 280.573C421.33 290.038 407.672 291.914 393.415 297.579C385.851 300.648 378.814 304.879 372.555 310.119C351.063 328.12 346.817 355.747 363.574 378.989C372.833 391.833 384.033 401.834 391.572 416.294C399.149 430.827 402.646 444.588 406.857 460.22C419.874 502.314 468.938 518.04 503.064 489.286C511.541 482.143 519.526 474.876 527.764 467.848C558.563 441.571 603.725 413.428 644.442 434.916C661.195 443.567 673.784 458.569 679.396 476.569C684.6 494.126 682.634 513.029 673.927 529.139C656.802 561.207 616.061 574.419 583.647 557.336C568.422 549.313 566.315 529.408 580.334 518.9C591.814 510.294 607.48 519.712 620.584 515.729C639.863 509.868 639.987 486.698 624.055 477.071C614.959 472.876 601.924 473.645 592.868 477.686C567.43 489.037 547.68 512.392 525.863 528.664C517.053 535.299 507.22 540.452 496.752 543.923C470.648 552.701 442.118 550.677 417.516 538.301C392.521 525.773 373.734 503.573 365.511 476.851C361.638 463.829 359.265 448.794 351.433 437.344C336.825 415.988 321.602 406.879 313.243 380.408C304.999 354.582 307.407 326.533 319.931 302.49C330.859 281.808 349.8 263.052 372.513 256.224C385.473 252.815 397.401 249.343 408.323 241.207C418.929 233.307 424.77 224.263 432.215 213.768C444.032 197.113 463.571 186.097 482.788 180.146C515.954 169.876 556.787 178.839 580.496 204.857C596.483 222.67 599.294 235.326 621.969 247.617C621.773 249.288 622.005 249.474 622.476 251.002C623.778 255.216 622.972 260.076 623.492 264.467C624.493 272.913 626.807 286.676 620.314 293.776Z"/><defs><linearGradient id="gradient_1" gradientUnits="userSpaceOnUse" x1="427.33179" y1="364.09085" x2="592.82214" y2="343.20523"><stop offset="0" stop-color="#FF6F6D"/><stop offset="1" stop-color="#FEB7BF"/></linearGradient></defs><path fill="url(#gradient_1)" d="M474.946 281.114C495.602 280.337 483.944 305.973 499.891 316.298C505.333 319.719 509.425 319.735 515.82 319.045C536.059 316.86 527.934 284.054 543.254 281.067C551.259 279.506 555.433 287.16 556.035 294.695C552.615 301.402 546.068 305.034 542.217 311.35C538.638 317.221 537.154 326.341 538.947 332.946C540.084 337.139 542.589 341.229 545.807 344.149C560.794 357.748 580.83 341.431 590.51 347.239C594.014 349.341 594.887 353.142 595.849 356.81C591.733 370.845 583.746 366.835 572.527 364.579C563.351 362.734 552.482 362.597 545.876 370.399C542.863 373.932 541.02 378.314 540.603 382.939C538.84 404.213 566.757 408.938 553.425 423.801C550.598 425.52 550.093 425.661 546.938 426.535L546.484 426.444L545.729 426.285C535.856 424.298 536.068 415.899 531.696 408.344C520.546 389.079 495.628 393.241 487.963 412.841C486.463 415.499 484.607 421.802 482.17 423.588C470.889 431.859 464.287 422.691 464.531 412.187C467.425 406.668 472.587 404.04 475.478 399.724C489.771 378.387 473.376 359.154 449.826 363.997C444.161 365.162 438.343 367.107 433.103 366.191C426.329 365.007 425.024 359.251 426.43 353.448C426.873 351.527 428.485 349.669 429.895 348.372C435.595 343.126 442.659 347.735 448.933 348.864C456.375 350.001 465.151 350.059 471.949 346.439C476.81 343.895 480.412 339.464 481.909 334.186C484.875 324.036 481.856 312.867 474.22 305.782C465.475 297.667 460.128 286.927 474.946 281.114Z"/><path fill="white" d="M509.468 339.62C531.324 339.258 532.797 372.586 512.299 376.462C494.94 376.342 490.967 360.138 498.235 346.252C500.366 342.18 505.103 340.398 509.468 339.62Z"/><path fill="#FEA8AE" d="M621.969 247.617C632.864 252.159 642.288 253.606 652.763 257.418C701.167 275.032 729.194 334.974 708.796 382.928C703.656 395.011 695.476 409.327 683.387 415.103C678.364 417.407 669.399 417.345 664.874 414.922C644.401 403.917 651.352 387.318 661.964 372.462C669.806 361.483 670.419 344.292 665.92 331.911C658.217 310.71 640.634 300.305 620.314 293.776C626.807 286.676 624.493 272.913 623.492 264.467C622.972 260.076 623.778 255.216 622.476 251.002C622.005 249.474 621.773 249.288 621.969 247.617Z"/></svg>