<?xml version="1.0" encoding="utf-8" ?><svg xmlns="http://www.w3.org/2000/svg" xmlns:xlink="http://www.w3.org/1999/xlink" width="1024" height="1024" viewBox="0 0 1024 1024"><path fill="white" d="M0 0L1024 0L1024 1024L0 1024L0 0Z"/><defs><linearGradient id="gradient_0" gradientUnits="userSpaceOnUse" x1="324.33536" y1="425.82306" x2="648.50311" y2="349.39929"><stop offset="0" stop-color="#FF2C2A"/><stop offset="1" stop-color="#FF8C8E"/></linearGradient></defs><path fill="url(#gradient_0)" d="M620.314 293.776C609.09 289.353 603.59 289.902 590.811 282.285C582.868 277.517 575.913 271.271 570.322 263.884C559.837 250.012 556.52 239.073 539.485 230.313C517.407 218.96 500.158 219.387 479.043 232.337C458.169 245.139 453.649 266.379 434.26 280.573C421.33 290.038 407.672 291.914 393.415 297.579C385.851 300.648 378.814 304.879 372.555 310.119C351.063 328.12 346.817 355.747 363.574 378.989C372.833 391.833 384.033 401.834 391.572 416.294C399.149 430.827 402.646 444.588 406.857 460.22C419.874 502.314 468.938 518.04 503.064 489.286C511.541 482.143 519.526 474.876 527.764 467.848C558.563 441.571 603.725 413.428 644.442 434.916C661.195 443.567 673.784 458.569 679.396 476.569C684.6 494.126 682.634 513.029 673.927 529.139C656.802 561.207 616.061 574.419 583.647 557.336C568.422 549.313 566.315 529.408 580.334 518.9C591.814 510.294 607.48 519.712 620.584 515.729C639.863 509.868 639.987 486.698 624.055 477.071C614.959 472.876 601.924 473.645 592.868 477.686C567.43 489.037 547.68 512.392 525.863 528.664C517.053 535.299 507.22 540.452 496.752 543.923C470.648 552.701 442.118 550.677 417.516 538.301C392.521 525.773 373.734 503.573 365.511 476.851C361.638 463.829 359.265 448.794 351.433 437.344C336.825 415.988 321.602 406.879 313.243 380.408C304.999 354.582 307.407 326.533 319.931 302.49C330.859 281.808 349.8 263.052 372.513 256.224C385.473 252.815 397.401 249.343 408.323 241.207C418.929 233.307 424.77 224.263 432.215 213.768C444.032 197.113 463.571 186.097 482.788 180.146C515.954 169.876 556.787 178.839 580.496 204.857C596.483 222.67 599.294 235.326 621.969 247.617C621.773 249.288 622.005 249.474 622.476 251.002C623.778 255.216 622.972 260.076 623.492 264.467C624.493 272.913 626.807 286.676 620.314 293.776Z"/><path fill="#05033C" d="M526.629 678.708C531.045 678.655 535.456 679.024 539.802 679.808C554.797 682.491 568.061 691.144 576.559 703.785C596.993 734.184 589.996 774.431 559.659 796.063C539.319 810.567 501.689 807.6 487.012 785.289L486.986 807.75L487.14 848.474C479.768 848.312 472.393 848.281 465.02 848.382L464.998 680.678L487.189 680.713C486.937 686.786 486.973 693.364 486.904 699.48C498.284 684.379 507.963 679.739 526.629 678.708Z"/><path fill="white" d="M520.501 699.109C543.747 696.422 564.792 713.03 567.583 736.263C570.373 759.497 553.86 780.616 530.639 783.51C507.271 786.423 485.988 769.782 483.18 746.401C480.372 723.02 497.108 701.812 520.501 699.109Z"/><path fill="#05033C" d="M780.276 678.827C815.116 677.128 844.691 704.094 846.207 738.943C847.723 773.792 820.601 803.224 785.745 804.557C751.147 805.879 721.98 779.003 720.475 744.412C718.971 709.821 745.693 680.514 780.276 678.827Z"/><path fill="white" d="M778.89 698.188C801.592 695.516 820.12 711.05 823.654 733.247C825.665 745.732 822.657 758.505 815.287 768.782C808.359 778.295 799.472 782.668 788.117 784.434C784.853 784.64 781.009 784.822 777.778 784.49C739.056 780.504 730.771 726.428 759.593 704.798C765.31 700.508 772.052 699.131 778.89 698.188Z"/><defs><linearGradient id="gradient_1" gradientUnits="userSpaceOnUse" x1="427.33179" y1="364.09085" x2="592.82214" y2="343.20523"><stop offset="0" stop-color="#FF6F6D"/><stop offset="1" stop-color="#FEB7BF"/></linearGradient></defs><path fill="url(#gradient_1)" d="M474.946 281.114C495.602 280.337 483.944 305.973 499.891 316.298C505.333 319.719 509.425 319.735 515.82 319.045C536.059 316.86 527.934 284.054 543.254 281.067C551.259 279.506 555.433 287.16 556.035 294.695C552.615 301.402 546.068 305.034 542.217 311.35C538.638 317.221 537.154 326.341 538.947 332.946C540.084 337.139 542.589 341.229 545.807 344.149C560.794 357.748 580.83 341.431 590.51 347.239C594.014 349.341 594.887 353.142 595.849 356.81C591.733 370.845 583.746 366.835 572.527 364.579C563.351 362.734 552.482 362.597 545.876 370.399C542.863 373.932 541.02 378.314 540.603 382.939C538.84 404.213 566.757 408.938 553.425 423.801C550.598 425.52 550.093 425.661 546.938 426.535L546.484 426.444L545.729 426.285C535.856 424.298 536.068 415.899 531.696 408.344C520.546 389.079 495.628 393.241 487.963 412.841C486.463 415.499 484.607 421.802 482.17 423.588C470.889 431.859 464.287 422.691 464.531 412.187C467.425 406.668 472.587 404.04 475.478 399.724C489.771 378.387 473.376 359.154 449.826 363.997C444.161 365.162 438.343 367.107 433.103 366.191C426.329 365.007 425.024 359.251 426.43 353.448C426.873 351.527 428.485 349.669 429.895 348.372C435.595 343.126 442.659 347.735 448.933 348.864C456.375 350.001 465.151 350.059 471.949 346.439C476.81 343.895 480.412 339.464 481.909 334.186C484.875 324.036 481.856 312.867 474.22 305.782C465.475 297.667 460.128 286.927 474.946 281.114Z"/><path fill="white" d="M509.468 339.62C531.324 339.258 532.797 372.586 512.299 376.462C494.94 376.342 490.967 360.138 498.235 346.252C500.366 342.18 505.103 340.398 509.468 339.62Z"/><path fill="#FEA8AE" d="M621.969 247.617C632.864 252.159 642.288 253.606 652.763 257.418C701.167 275.032 729.194 334.974 708.796 382.928C703.656 395.011 695.476 409.327 683.387 415.103C678.364 417.407 669.399 417.345 664.874 414.922C644.401 403.917 651.352 387.318 661.964 372.462C669.806 361.483 670.419 344.292 665.92 331.911C658.217 310.71 640.634 300.305 620.314 293.776C626.807 286.676 624.493 272.913 623.492 264.467C622.972 260.076 623.778 255.216 622.476 251.002C622.005 249.474 621.773 249.288 621.969 247.617Z"/><path fill="#05033C" d="M280.874 678.701C293.283 677.528 309.812 680.858 318.622 690.279C334.219 706.959 332.756 733.09 332.899 754.336C333.007 770.474 332.98 786.613 332.819 802.751L311.654 802.82L311.747 759.603C311.773 748.053 312.383 735.334 311.291 723.906C309.139 701.392 287.616 694.022 268.747 700.908C248.961 711.871 251.575 738.299 251.558 757.459L251.509 802.941L229.674 802.823C230.324 788.265 229.99 771.772 229.995 757.061L229.899 680.665L248.429 680.575C248.533 685.058 249.563 692.707 250.082 697.426C258.46 685.821 266.469 680.171 280.874 678.701Z"/><path fill="#05033C" d="M390.426 679.187C415.373 676.524 433.835 685.488 444.062 708.614C438.093 710.612 429.971 712.252 423.297 714.326C416.786 701.256 409.068 698.076 395.048 697.993C385.921 697.939 374.069 704.024 375.449 714.321C377.464 729.353 405.268 731.422 416.753 735.41C431.163 739.761 444.962 748.04 446.192 764.858C448.211 792.461 425.605 803.629 401.747 804.854C378.669 804.517 358.069 795.463 350.86 772.068L371.242 767.685C376.826 782.347 388.891 787.638 404.032 786.098C413.868 785.097 426.453 779.427 425.125 767.491C423.958 757.003 410.72 754.028 402.223 751.897C390.43 748.94 377.426 746.72 367.38 739.34C352.947 729.073 350.128 707.301 360.97 693.482C368.311 684.125 379.108 680.661 390.426 679.187Z"/><path fill="#05033C" d="M200.634 644.753L201.162 644.76C202.494 648.123 201.485 789.078 201.478 802.915L179.469 802.957L178.728 802.766C178.016 801.332 178.45 659.016 178.481 644.882L200.634 644.753Z"/><path fill="#05033C" d="M707.444 678.695C712.589 678.241 718.748 678.833 723.956 679.229C722.514 685.598 720.493 692.538 718.764 698.896C717.059 698.749 715.348 698.671 713.637 698.662C703.737 698.534 694.391 701.158 687.234 708.28C673.209 722.234 675.934 745.823 675.978 763.977C676.001 776.897 675.958 789.818 675.849 802.738C672.856 802.758 655.267 803.284 654.055 802.28L653.941 800.125L654.004 680.546L673.525 680.495C673.455 688.022 674.268 695.644 674.638 703.213C682.621 688.398 689.895 680.58 707.444 678.695Z"/><path fill="#05033C" d="M607.411 680.677L629.392 680.667L629.459 758.113C629.438 772.768 629.675 788.321 629.286 802.918L607.097 802.795L607.411 680.677Z"/><path fill="#05033C" d="M614.191 639.754C621.936 637.809 629.809 642.439 631.874 650.153C633.938 657.868 629.43 665.811 621.749 667.995C616.673 669.438 611.214 668.033 607.464 664.32C603.715 660.607 602.258 655.162 603.651 650.072C605.045 644.983 609.073 641.039 614.191 639.754Z"/></svg>